<?xml version="1.0" encoding="UTF-8" standalone="no"?>
<!DOCTYPE svg PUBLIC "-//W3C//DTD SVG 1.1//EN"
 "http://www.w3.org/Graphics/SVG/1.1/DTD/svg11.dtd">
<!-- Generated by graphviz version 2.40.1 (20161225.0304)
 -->
<!-- Title: dependencies Pages: 1 -->
<svg width="1062pt" height="284pt"
 viewBox="0.00 0.00 1062.00 284.00" xmlns="http://www.w3.org/2000/svg" xmlns:xlink="http://www.w3.org/1999/xlink">
<g id="graph0" class="graph" transform="scale(1 1) rotate(0) translate(4 280)">
<title>dependencies</title>
<polygon fill="#ffffff" stroke="transparent" points="-4,4 -4,-280 1058,-280 1058,4 -4,4"/>
<text text-anchor="start" x="506.0091" y="-42.4" font-family="sans-serif" font-weight="bold" font-size="14.00" fill="#000000">Legend</text>
<polygon fill="#ffffb3" stroke="transparent" points="293,-10 293,-30 313,-30 313,-10 293,-10"/>
<text text-anchor="start" x="316.629" y="-15.4" font-family="sans-serif" font-size="14.00" fill="#000000"> &#160;Declarations</text>
<polygon fill="#8dd3c7" stroke="transparent" points="406,-10 406,-30 426,-30 426,-10 406,-10"/>
<text text-anchor="start" x="429.7251" y="-15.4" font-family="sans-serif" font-size="14.00" fill="#000000"> &#160;Module</text>
<polygon fill="#80b1d3" stroke="transparent" points="492,-10 492,-30 512,-30 512,-10 492,-10"/>
<text text-anchor="start" x="515.7812" y="-15.4" font-family="sans-serif" font-size="14.00" fill="#000000"> &#160;Bootstrap</text>
<polygon fill="#fdb462" stroke="transparent" points="589,-10 589,-30 609,-30 609,-10 589,-10"/>
<text text-anchor="start" x="612.6732" y="-15.4" font-family="sans-serif" font-size="14.00" fill="#000000"> &#160;Providers</text>
<polygon fill="#fb8072" stroke="transparent" points="685,-10 685,-30 705,-30 705,-10 685,-10"/>
<text text-anchor="start" x="708.7258" y="-15.4" font-family="sans-serif" font-size="14.00" fill="#000000"> &#160;Exports</text>
<g id="clust1" class="cluster">
<title>cluster_AppModule</title>
<polygon fill="none" stroke="#000000" stroke-dasharray="1,5" points="8,-70 8,-268 1046,-268 1046,-70 8,-70"/>
</g>
<g id="clust2" class="cluster">
<title>cluster_AppModule_declarations</title>
<polygon fill="none" stroke="#000000" points="450,-78 450,-130 1038,-130 1038,-78 450,-78"/>
</g>
<g id="clust7" class="cluster">
<title>cluster_AppModule_imports</title>
<polygon fill="none" stroke="#000000" points="298,-78 298,-130 442,-130 442,-78 298,-78"/>
</g>
<g id="clust9" class="cluster">
<title>cluster_AppModule_bootstrap</title>
<polygon fill="none" stroke="#000000" points="447,-208 447,-260 571,-260 571,-208 447,-208"/>
</g>
<g id="clust10" class="cluster">
<title>cluster_AppModule_providers</title>
<polygon fill="none" stroke="#000000" points="16,-78 16,-130 290,-130 290,-78 16,-78"/>
</g>
<!-- AppComponent -->
<g id="node1" class="node">
<title>AppComponent</title>
<polygon fill="#ffffb3" stroke="#000000" points="1029.9399,-122 924.0601,-122 924.0601,-86 1029.9399,-86 1029.9399,-122"/>
<text text-anchor="middle" x="977" y="-99.8" font-family="Times,serif" font-size="14.00" fill="#000000">AppComponent</text>
</g>
<!-- AppModule -->
<g id="node5" class="node">
<title>AppModule</title>
<polygon fill="#8dd3c7" stroke="#000000" points="550.6571,-187 547.6571,-191 526.6571,-191 523.6571,-187 467.3429,-187 467.3429,-151 550.6571,-151 550.6571,-187"/>
<text text-anchor="middle" x="509" y="-164.8" font-family="Times,serif" font-size="14.00" fill="#000000">AppModule</text>
</g>
<!-- AppComponent&#45;&gt;AppModule -->
<g id="edge1" class="edge">
<title>AppComponent&#45;&gt;AppModule</title>
<path fill="none" stroke="#000000" d="M977,-122.2921C977,-144.2057 977,-178 977,-178 977,-178 560.9437,-178 560.9437,-178"/>
<polygon fill="#000000" stroke="#000000" points="560.9438,-174.5001 550.9437,-178 560.9437,-181.5001 560.9438,-174.5001"/>
</g>
<!-- ComponentTestingComponent -->
<g id="node2" class="node">
<title>ComponentTestingComponent</title>
<polygon fill="#ffffb3" stroke="#000000" points="906.1581,-122 717.8419,-122 717.8419,-86 906.1581,-86 906.1581,-122"/>
<text text-anchor="middle" x="812" y="-99.8" font-family="Times,serif" font-size="14.00" fill="#000000">ComponentTestingComponent</text>
</g>
<!-- ComponentTestingComponent&#45;&gt;AppModule -->
<g id="edge2" class="edge">
<title>ComponentTestingComponent&#45;&gt;AppModule</title>
<path fill="none" stroke="#000000" d="M812,-122.1061C812,-141.3391 812,-169 812,-169 812,-169 560.8127,-169 560.8127,-169"/>
<polygon fill="#000000" stroke="#000000" points="560.8128,-165.5001 550.8127,-169 560.8127,-172.5001 560.8128,-165.5001"/>
</g>
<!-- PaskhaComponent -->
<g id="node3" class="node">
<title>PaskhaComponent</title>
<polygon fill="#ffffb3" stroke="#000000" points="699.4888,-122 578.5112,-122 578.5112,-86 699.4888,-86 699.4888,-122"/>
<text text-anchor="middle" x="639" y="-99.8" font-family="Times,serif" font-size="14.00" fill="#000000">PaskhaComponent</text>
</g>
<!-- PaskhaComponent&#45;&gt;AppModule -->
<g id="edge3" class="edge">
<title>PaskhaComponent&#45;&gt;AppModule</title>
<path fill="none" stroke="#000000" d="M639,-122.027C639,-138.3976 639,-160 639,-160 639,-160 560.8484,-160 560.8484,-160"/>
<polygon fill="#000000" stroke="#000000" points="560.8484,-156.5001 550.8484,-160 560.8484,-163.5001 560.8484,-156.5001"/>
</g>
<!-- SedComponent -->
<g id="node4" class="node">
<title>SedComponent</title>
<polygon fill="#ffffb3" stroke="#000000" points="560.3301,-122 457.6699,-122 457.6699,-86 560.3301,-86 560.3301,-122"/>
<text text-anchor="middle" x="509" y="-99.8" font-family="Times,serif" font-size="14.00" fill="#000000">SedComponent</text>
</g>
<!-- SedComponent&#45;&gt;AppModule -->
<g id="edge4" class="edge">
<title>SedComponent&#45;&gt;AppModule</title>
<path fill="none" stroke="#000000" d="M509,-122.1061C509,-122.1061 509,-140.991 509,-140.991"/>
<polygon fill="#000000" stroke="#000000" points="505.5001,-140.9909 509,-150.991 512.5001,-140.991 505.5001,-140.9909"/>
</g>
<!-- AppComponent  -->
<g id="node7" class="node">
<title>AppComponent </title>
<polygon fill="#80b1d3" stroke="#000000" points="563.439,-252 454.561,-252 454.561,-216 563.439,-216 563.439,-252"/>
<text text-anchor="middle" x="509" y="-229.8" font-family="Times,serif" font-size="14.00" fill="#000000">AppComponent </text>
</g>
<!-- AppModule&#45;&gt;AppComponent  -->
<g id="edge6" class="edge">
<title>AppModule&#45;&gt;AppComponent </title>
<path fill="none" stroke="#000000" stroke-dasharray="1,5" d="M509,-187.1061C509,-187.1061 509,-205.991 509,-205.991"/>
<polygon fill="#000000" stroke="#000000" points="505.5001,-205.9909 509,-215.991 512.5001,-205.991 505.5001,-205.9909"/>
</g>
<!-- AppRoutingModule -->
<g id="node6" class="node">
<title>AppRoutingModule</title>
<polygon fill="#8dd3c7" stroke="#000000" points="434.2744,-122 431.2744,-126 410.2744,-126 407.2744,-122 305.7256,-122 305.7256,-86 434.2744,-86 434.2744,-122"/>
<text text-anchor="middle" x="370" y="-99.8" font-family="Times,serif" font-size="14.00" fill="#000000">AppRoutingModule</text>
</g>
<!-- AppRoutingModule&#45;&gt;AppModule -->
<g id="edge5" class="edge">
<title>AppRoutingModule&#45;&gt;AppModule</title>
<path fill="none" stroke="#000000" d="M370,-122.027C370,-138.3976 370,-160 370,-160 370,-160 457.2954,-160 457.2954,-160"/>
<polygon fill="#000000" stroke="#000000" points="457.2955,-163.5001 467.2954,-160 457.2954,-156.5001 457.2955,-163.5001"/>
</g>
<!-- DateService -->
<g id="node8" class="node">
<title>DateService</title>
<ellipse fill="#fdb462" stroke="#000000" cx="224" cy="-104" rx="58.4415" ry="18"/>
<text text-anchor="middle" x="224" y="-99.8" font-family="Times,serif" font-size="14.00" fill="#000000">DateService</text>
</g>
<!-- DateService&#45;&gt;AppModule -->
<g id="edge7" class="edge">
<title>DateService&#45;&gt;AppModule</title>
<path fill="none" stroke="#000000" d="M224,-122.1061C224,-141.3391 224,-169 224,-169 224,-169 457.2533,-169 457.2533,-169"/>
<polygon fill="#000000" stroke="#000000" points="457.2534,-172.5001 467.2533,-169 457.2533,-165.5001 457.2534,-172.5001"/>
</g>
<!-- LinksService -->
<g id="node9" class="node">
<title>LinksService</title>
<ellipse fill="#fdb462" stroke="#000000" cx="86" cy="-104" rx="61.975" ry="18"/>
<text text-anchor="middle" x="86" y="-99.8" font-family="Times,serif" font-size="14.00" fill="#000000">LinksService</text>
</g>
<!-- LinksService&#45;&gt;AppModule -->
<g id="edge8" class="edge">
<title>LinksService&#45;&gt;AppModule</title>
<path fill="none" stroke="#000000" d="M86,-122.2921C86,-144.2057 86,-178 86,-178 86,-178 457.2835,-178 457.2835,-178"/>
<polygon fill="#000000" stroke="#000000" points="457.2835,-181.5001 467.2835,-178 457.2834,-174.5001 457.2835,-181.5001"/>
</g>
</g>
</svg>
