<?xml version="1.0" encoding="UTF-8" standalone="no"?>
<!DOCTYPE svg PUBLIC "-//W3C//DTD SVG 1.1//EN"
 "http://www.w3.org/Graphics/SVG/1.1/DTD/svg11.dtd">
<!-- Generated by graphviz version 2.40.1 (20161225.0304)
 -->
<!-- Title: dependencies Pages: 1 -->
<svg width="1156pt" height="284pt"
 viewBox="0.00 0.00 1156.00 284.00" xmlns="http://www.w3.org/2000/svg" xmlns:xlink="http://www.w3.org/1999/xlink">
<g id="graph0" class="graph" transform="scale(1 1) rotate(0) translate(4 280)">
<title>dependencies</title>
<polygon fill="#ffffff" stroke="transparent" points="-4,4 -4,-280 1152,-280 1152,4 -4,4"/>
<text text-anchor="start" x="553.0091" y="-42.4" font-family="sans-serif" font-weight="bold" font-size="14.00" fill="#000000">Legend</text>
<polygon fill="#ffffb3" stroke="transparent" points="340,-10 340,-30 360,-30 360,-10 340,-10"/>
<text text-anchor="start" x="363.629" y="-15.4" font-family="sans-serif" font-size="14.00" fill="#000000"> &#160;Declarations</text>
<polygon fill="#8dd3c7" stroke="transparent" points="453,-10 453,-30 473,-30 473,-10 453,-10"/>
<text text-anchor="start" x="476.7251" y="-15.4" font-family="sans-serif" font-size="14.00" fill="#000000"> &#160;Module</text>
<polygon fill="#80b1d3" stroke="transparent" points="539,-10 539,-30 559,-30 559,-10 539,-10"/>
<text text-anchor="start" x="562.7812" y="-15.4" font-family="sans-serif" font-size="14.00" fill="#000000"> &#160;Bootstrap</text>
<polygon fill="#fdb462" stroke="transparent" points="636,-10 636,-30 656,-30 656,-10 636,-10"/>
<text text-anchor="start" x="659.6732" y="-15.4" font-family="sans-serif" font-size="14.00" fill="#000000"> &#160;Providers</text>
<polygon fill="#fb8072" stroke="transparent" points="732,-10 732,-30 752,-30 752,-10 732,-10"/>
<text text-anchor="start" x="755.7258" y="-15.4" font-family="sans-serif" font-size="14.00" fill="#000000"> &#160;Exports</text>
<g id="clust1" class="cluster">
<title>cluster_AppModule</title>
<polygon fill="none" stroke="#000000" stroke-dasharray="1,5" points="8,-70 8,-268 1140,-268 1140,-70 8,-70"/>
</g>
<g id="clust2" class="cluster">
<title>cluster_AppModule_declarations</title>
<polygon fill="none" stroke="#000000" points="308,-78 308,-130 1132,-130 1132,-78 308,-78"/>
</g>
<g id="clust9" class="cluster">
<title>cluster_AppModule_imports</title>
<polygon fill="none" stroke="#000000" points="156,-78 156,-130 300,-130 300,-78 156,-78"/>
</g>
<g id="clust11" class="cluster">
<title>cluster_AppModule_bootstrap</title>
<polygon fill="none" stroke="#000000" points="483,-208 483,-260 607,-260 607,-208 483,-208"/>
</g>
<g id="clust12" class="cluster">
<title>cluster_AppModule_providers</title>
<polygon fill="none" stroke="#000000" points="16,-78 16,-130 148,-130 148,-78 16,-78"/>
</g>
<!-- AppComponent -->
<g id="node1" class="node">
<title>AppComponent</title>
<polygon fill="#ffffb3" stroke="#000000" points="1123.9399,-122 1018.0601,-122 1018.0601,-86 1123.9399,-86 1123.9399,-122"/>
<text text-anchor="middle" x="1071" y="-99.8" font-family="Times,serif" font-size="14.00" fill="#000000">AppComponent</text>
</g>
<!-- AppModule -->
<g id="node7" class="node">
<title>AppModule</title>
<polygon fill="#8dd3c7" stroke="#000000" points="586.6571,-187 583.6571,-191 562.6571,-191 559.6571,-187 503.3429,-187 503.3429,-151 586.6571,-151 586.6571,-187"/>
<text text-anchor="middle" x="545" y="-164.8" font-family="Times,serif" font-size="14.00" fill="#000000">AppModule</text>
</g>
<!-- AppComponent&#45;&gt;AppModule -->
<g id="edge1" class="edge">
<title>AppComponent&#45;&gt;AppModule</title>
<path fill="none" stroke="#000000" d="M1071,-122.2921C1071,-144.2057 1071,-178 1071,-178 1071,-178 596.714,-178 596.714,-178"/>
<polygon fill="#000000" stroke="#000000" points="596.714,-174.5001 586.714,-178 596.714,-181.5001 596.714,-174.5001"/>
</g>
<!-- ComponentTestingComponent -->
<g id="node2" class="node">
<title>ComponentTestingComponent</title>
<polygon fill="#ffffb3" stroke="#000000" points="1000.1581,-122 811.8419,-122 811.8419,-86 1000.1581,-86 1000.1581,-122"/>
<text text-anchor="middle" x="906" y="-99.8" font-family="Times,serif" font-size="14.00" fill="#000000">ComponentTestingComponent</text>
</g>
<!-- ComponentTestingComponent&#45;&gt;AppModule -->
<g id="edge2" class="edge">
<title>ComponentTestingComponent&#45;&gt;AppModule</title>
<path fill="none" stroke="#000000" d="M906,-122.1061C906,-141.3391 906,-169 906,-169 906,-169 596.764,-169 596.764,-169"/>
<polygon fill="#000000" stroke="#000000" points="596.764,-165.5001 586.764,-169 596.7639,-172.5001 596.764,-165.5001"/>
</g>
<!-- PaskhaComponent -->
<g id="node3" class="node">
<title>PaskhaComponent</title>
<polygon fill="#ffffb3" stroke="#000000" points="793.4888,-122 672.5112,-122 672.5112,-86 793.4888,-86 793.4888,-122"/>
<text text-anchor="middle" x="733" y="-99.8" font-family="Times,serif" font-size="14.00" fill="#000000">PaskhaComponent</text>
</g>
<!-- PaskhaComponent&#45;&gt;AppModule -->
<g id="edge3" class="edge">
<title>PaskhaComponent&#45;&gt;AppModule</title>
<path fill="none" stroke="#000000" d="M733,-122.027C733,-138.3976 733,-160 733,-160 733,-160 596.7233,-160 596.7233,-160"/>
<polygon fill="#000000" stroke="#000000" points="596.7233,-156.5001 586.7233,-160 596.7233,-163.5001 596.7233,-156.5001"/>
</g>
<!-- RrrComponent -->
<g id="node4" class="node">
<title>RrrComponent</title>
<polygon fill="#ffffb3" stroke="#000000" points="654.9902,-122 555.0098,-122 555.0098,-86 654.9902,-86 654.9902,-122"/>
<text text-anchor="middle" x="605" y="-99.8" font-family="Times,serif" font-size="14.00" fill="#000000">RrrComponent</text>
</g>
<!-- RrrComponent&#45;&gt;AppModule -->
<g id="edge4" class="edge">
<title>RrrComponent&#45;&gt;AppModule</title>
<path fill="none" stroke="#000000" d="M570.9166,-122.1061C570.9166,-122.1061 570.9166,-140.991 570.9166,-140.991"/>
<polygon fill="#000000" stroke="#000000" points="567.4166,-140.9909 570.9166,-150.991 574.4166,-140.991 567.4166,-140.9909"/>
</g>
<!-- SedComponent -->
<g id="node5" class="node">
<title>SedComponent</title>
<polygon fill="#ffffb3" stroke="#000000" points="537.3301,-122 434.6699,-122 434.6699,-86 537.3301,-86 537.3301,-122"/>
<text text-anchor="middle" x="486" y="-99.8" font-family="Times,serif" font-size="14.00" fill="#000000">SedComponent</text>
</g>
<!-- SedComponent&#45;&gt;AppModule -->
<g id="edge5" class="edge">
<title>SedComponent&#45;&gt;AppModule</title>
<path fill="none" stroke="#000000" d="M520.1683,-122.1061C520.1683,-122.1061 520.1683,-140.991 520.1683,-140.991"/>
<polygon fill="#000000" stroke="#000000" points="516.6684,-140.9909 520.1683,-150.991 523.6684,-140.991 516.6684,-140.9909"/>
</g>
<!-- SprComponent -->
<g id="node6" class="node">
<title>SprComponent</title>
<polygon fill="#ffffb3" stroke="#000000" points="416.2758,-122 315.7242,-122 315.7242,-86 416.2758,-86 416.2758,-122"/>
<text text-anchor="middle" x="366" y="-99.8" font-family="Times,serif" font-size="14.00" fill="#000000">SprComponent</text>
</g>
<!-- SprComponent&#45;&gt;AppModule -->
<g id="edge6" class="edge">
<title>SprComponent&#45;&gt;AppModule</title>
<path fill="none" stroke="#000000" d="M366,-122.027C366,-138.3976 366,-160 366,-160 366,-160 493.0325,-160 493.0325,-160"/>
<polygon fill="#000000" stroke="#000000" points="493.0325,-163.5001 503.0325,-160 493.0324,-156.5001 493.0325,-163.5001"/>
</g>
<!-- AppComponent  -->
<g id="node9" class="node">
<title>AppComponent </title>
<polygon fill="#80b1d3" stroke="#000000" points="599.439,-252 490.561,-252 490.561,-216 599.439,-216 599.439,-252"/>
<text text-anchor="middle" x="545" y="-229.8" font-family="Times,serif" font-size="14.00" fill="#000000">AppComponent </text>
</g>
<!-- AppModule&#45;&gt;AppComponent  -->
<g id="edge8" class="edge">
<title>AppModule&#45;&gt;AppComponent </title>
<path fill="none" stroke="#000000" stroke-dasharray="1,5" d="M545,-187.1061C545,-187.1061 545,-205.991 545,-205.991"/>
<polygon fill="#000000" stroke="#000000" points="541.5001,-205.9909 545,-215.991 548.5001,-205.991 541.5001,-205.9909"/>
</g>
<!-- AppRoutingModule -->
<g id="node8" class="node">
<title>AppRoutingModule</title>
<polygon fill="#8dd3c7" stroke="#000000" points="292.2744,-122 289.2744,-126 268.2744,-126 265.2744,-122 163.7256,-122 163.7256,-86 292.2744,-86 292.2744,-122"/>
<text text-anchor="middle" x="228" y="-99.8" font-family="Times,serif" font-size="14.00" fill="#000000">AppRoutingModule</text>
</g>
<!-- AppRoutingModule&#45;&gt;AppModule -->
<g id="edge7" class="edge">
<title>AppRoutingModule&#45;&gt;AppModule</title>
<path fill="none" stroke="#000000" d="M228,-122.1061C228,-141.3391 228,-169 228,-169 228,-169 493.2318,-169 493.2318,-169"/>
<polygon fill="#000000" stroke="#000000" points="493.2318,-172.5001 503.2318,-169 493.2318,-165.5001 493.2318,-172.5001"/>
</g>
<!-- DateService -->
<g id="node10" class="node">
<title>DateService</title>
<ellipse fill="#fdb462" stroke="#000000" cx="82" cy="-104" rx="58.4415" ry="18"/>
<text text-anchor="middle" x="82" y="-99.8" font-family="Times,serif" font-size="14.00" fill="#000000">DateService</text>
</g>
<!-- DateService&#45;&gt;AppModule -->
<g id="edge9" class="edge">
<title>DateService&#45;&gt;AppModule</title>
<path fill="none" stroke="#000000" d="M82,-122.2921C82,-144.2057 82,-178 82,-178 82,-178 493.0952,-178 493.0952,-178"/>
<polygon fill="#000000" stroke="#000000" points="493.0953,-181.5001 503.0952,-178 493.0952,-174.5001 493.0953,-181.5001"/>
</g>
</g>
</svg>
