<?xml version="1.0" encoding="UTF-8" standalone="no"?>
<!DOCTYPE svg PUBLIC "-//W3C//DTD SVG 1.1//EN"
 "http://www.w3.org/Graphics/SVG/1.1/DTD/svg11.dtd">
<!-- Generated by graphviz version 2.40.1 (20161225.0304)
 -->
<!-- Title: dependencies Pages: 1 -->
<svg width="920pt" height="284pt"
 viewBox="0.00 0.00 920.00 284.00" xmlns="http://www.w3.org/2000/svg" xmlns:xlink="http://www.w3.org/1999/xlink">
<g id="graph0" class="graph" transform="scale(1 1) rotate(0) translate(4 280)">
<title>dependencies</title>
<polygon fill="#ffffff" stroke="transparent" points="-4,4 -4,-280 916,-280 916,4 -4,4"/>
<text text-anchor="start" x="435.0091" y="-42.4" font-family="sans-serif" font-weight="bold" font-size="14.00" fill="#000000">Legend</text>
<polygon fill="#ffffb3" stroke="transparent" points="222,-10 222,-30 242,-30 242,-10 222,-10"/>
<text text-anchor="start" x="245.629" y="-15.4" font-family="sans-serif" font-size="14.00" fill="#000000"> &#160;Declarations</text>
<polygon fill="#8dd3c7" stroke="transparent" points="335,-10 335,-30 355,-30 355,-10 335,-10"/>
<text text-anchor="start" x="358.7251" y="-15.4" font-family="sans-serif" font-size="14.00" fill="#000000"> &#160;Module</text>
<polygon fill="#80b1d3" stroke="transparent" points="421,-10 421,-30 441,-30 441,-10 421,-10"/>
<text text-anchor="start" x="444.7812" y="-15.4" font-family="sans-serif" font-size="14.00" fill="#000000"> &#160;Bootstrap</text>
<polygon fill="#fdb462" stroke="transparent" points="518,-10 518,-30 538,-30 538,-10 518,-10"/>
<text text-anchor="start" x="541.6732" y="-15.4" font-family="sans-serif" font-size="14.00" fill="#000000"> &#160;Providers</text>
<polygon fill="#fb8072" stroke="transparent" points="614,-10 614,-30 634,-30 634,-10 614,-10"/>
<text text-anchor="start" x="637.7258" y="-15.4" font-family="sans-serif" font-size="14.00" fill="#000000"> &#160;Exports</text>
<g id="clust1" class="cluster">
<title>cluster_AppModule</title>
<polygon fill="none" stroke="#000000" stroke-dasharray="1,5" points="8,-70 8,-268 904,-268 904,-70 8,-70"/>
</g>
<g id="clust2" class="cluster">
<title>cluster_AppModule_declarations</title>
<polygon fill="none" stroke="#000000" points="308,-78 308,-130 896,-130 896,-78 308,-78"/>
</g>
<g id="clust7" class="cluster">
<title>cluster_AppModule_imports</title>
<polygon fill="none" stroke="#000000" points="156,-78 156,-130 300,-130 300,-78 156,-78"/>
</g>
<g id="clust9" class="cluster">
<title>cluster_AppModule_bootstrap</title>
<polygon fill="none" stroke="#000000" points="370,-208 370,-260 494,-260 494,-208 370,-208"/>
</g>
<g id="clust10" class="cluster">
<title>cluster_AppModule_providers</title>
<polygon fill="none" stroke="#000000" points="16,-78 16,-130 148,-130 148,-78 16,-78"/>
</g>
<!-- AppComponent -->
<g id="node1" class="node">
<title>AppComponent</title>
<polygon fill="#ffffb3" stroke="#000000" points="887.9399,-122 782.0601,-122 782.0601,-86 887.9399,-86 887.9399,-122"/>
<text text-anchor="middle" x="835" y="-99.8" font-family="Times,serif" font-size="14.00" fill="#000000">AppComponent</text>
</g>
<!-- AppModule -->
<g id="node5" class="node">
<title>AppModule</title>
<polygon fill="#8dd3c7" stroke="#000000" points="473.6571,-187 470.6571,-191 449.6571,-191 446.6571,-187 390.3429,-187 390.3429,-151 473.6571,-151 473.6571,-187"/>
<text text-anchor="middle" x="432" y="-164.8" font-family="Times,serif" font-size="14.00" fill="#000000">AppModule</text>
</g>
<!-- AppComponent&#45;&gt;AppModule -->
<g id="edge1" class="edge">
<title>AppComponent&#45;&gt;AppModule</title>
<path fill="none" stroke="#000000" d="M835,-122.2843C835,-143.3211 835,-175 835,-175 835,-175 483.9876,-175 483.9876,-175"/>
<polygon fill="#000000" stroke="#000000" points="483.9876,-171.5001 473.9876,-175 483.9876,-178.5001 483.9876,-171.5001"/>
</g>
<!-- ComponentTestingComponent -->
<g id="node2" class="node">
<title>ComponentTestingComponent</title>
<polygon fill="#ffffb3" stroke="#000000" points="764.1581,-122 575.8419,-122 575.8419,-86 764.1581,-86 764.1581,-122"/>
<text text-anchor="middle" x="670" y="-99.8" font-family="Times,serif" font-size="14.00" fill="#000000">ComponentTestingComponent</text>
</g>
<!-- ComponentTestingComponent&#45;&gt;AppModule -->
<g id="edge2" class="edge">
<title>ComponentTestingComponent&#45;&gt;AppModule</title>
<path fill="none" stroke="#000000" d="M670,-122.0225C670,-139.3734 670,-163 670,-163 670,-163 483.7288,-163 483.7288,-163"/>
<polygon fill="#000000" stroke="#000000" points="483.7288,-159.5001 473.7288,-163 483.7287,-166.5001 483.7288,-159.5001"/>
</g>
<!-- PaskhaComponent -->
<g id="node3" class="node">
<title>PaskhaComponent</title>
<polygon fill="#ffffb3" stroke="#000000" points="557.4888,-122 436.5112,-122 436.5112,-86 557.4888,-86 557.4888,-122"/>
<text text-anchor="middle" x="497" y="-99.8" font-family="Times,serif" font-size="14.00" fill="#000000">PaskhaComponent</text>
</g>
<!-- PaskhaComponent&#45;&gt;AppModule -->
<g id="edge3" class="edge">
<title>PaskhaComponent&#45;&gt;AppModule</title>
<path fill="none" stroke="#000000" d="M455.1669,-122.1061C455.1669,-122.1061 455.1669,-140.991 455.1669,-140.991"/>
<polygon fill="#000000" stroke="#000000" points="451.667,-140.9909 455.1669,-150.991 458.667,-140.991 451.667,-140.9909"/>
</g>
<!-- SedComponent -->
<g id="node4" class="node">
<title>SedComponent</title>
<polygon fill="#ffffb3" stroke="#000000" points="418.3301,-122 315.6699,-122 315.6699,-86 418.3301,-86 418.3301,-122"/>
<text text-anchor="middle" x="367" y="-99.8" font-family="Times,serif" font-size="14.00" fill="#000000">SedComponent</text>
</g>
<!-- SedComponent&#45;&gt;AppModule -->
<g id="edge4" class="edge">
<title>SedComponent&#45;&gt;AppModule</title>
<path fill="none" stroke="#000000" d="M404.1683,-122.1061C404.1683,-122.1061 404.1683,-140.991 404.1683,-140.991"/>
<polygon fill="#000000" stroke="#000000" points="400.6684,-140.9909 404.1683,-150.991 407.6684,-140.991 400.6684,-140.9909"/>
</g>
<!-- AppComponent  -->
<g id="node7" class="node">
<title>AppComponent </title>
<polygon fill="#80b1d3" stroke="#000000" points="486.439,-252 377.561,-252 377.561,-216 486.439,-216 486.439,-252"/>
<text text-anchor="middle" x="432" y="-229.8" font-family="Times,serif" font-size="14.00" fill="#000000">AppComponent </text>
</g>
<!-- AppModule&#45;&gt;AppComponent  -->
<g id="edge6" class="edge">
<title>AppModule&#45;&gt;AppComponent </title>
<path fill="none" stroke="#000000" stroke-dasharray="1,5" d="M432,-187.1061C432,-187.1061 432,-205.991 432,-205.991"/>
<polygon fill="#000000" stroke="#000000" points="428.5001,-205.9909 432,-215.991 435.5001,-205.991 428.5001,-205.9909"/>
</g>
<!-- AppRoutingModule -->
<g id="node6" class="node">
<title>AppRoutingModule</title>
<polygon fill="#8dd3c7" stroke="#000000" points="292.2744,-122 289.2744,-126 268.2744,-126 265.2744,-122 163.7256,-122 163.7256,-86 292.2744,-86 292.2744,-122"/>
<text text-anchor="middle" x="228" y="-99.8" font-family="Times,serif" font-size="14.00" fill="#000000">AppRoutingModule</text>
</g>
<!-- AppRoutingModule&#45;&gt;AppModule -->
<g id="edge5" class="edge">
<title>AppRoutingModule&#45;&gt;AppModule</title>
<path fill="none" stroke="#000000" d="M228,-122.0225C228,-139.3734 228,-163 228,-163 228,-163 380.2253,-163 380.2253,-163"/>
<polygon fill="#000000" stroke="#000000" points="380.2253,-166.5001 390.2253,-163 380.2253,-159.5001 380.2253,-166.5001"/>
</g>
<!-- DateService -->
<g id="node8" class="node">
<title>DateService</title>
<ellipse fill="#fdb462" stroke="#000000" cx="82" cy="-104" rx="58.4415" ry="18"/>
<text text-anchor="middle" x="82" y="-99.8" font-family="Times,serif" font-size="14.00" fill="#000000">DateService</text>
</g>
<!-- DateService&#45;&gt;AppModule -->
<g id="edge7" class="edge">
<title>DateService&#45;&gt;AppModule</title>
<path fill="none" stroke="#000000" d="M82,-122.2843C82,-143.3211 82,-175 82,-175 82,-175 380.1295,-175 380.1295,-175"/>
<polygon fill="#000000" stroke="#000000" points="380.1295,-178.5001 390.1295,-175 380.1294,-171.5001 380.1295,-178.5001"/>
</g>
</g>
</svg>
