<?xml version="1.0" encoding="UTF-8" standalone="no"?>
<!DOCTYPE svg PUBLIC "-//W3C//DTD SVG 1.1//EN"
 "http://www.w3.org/Graphics/SVG/1.1/DTD/svg11.dtd">
<!-- Generated by graphviz version 2.40.1 (20161225.0304)
 -->
<!-- Title: dependencies Pages: 1 -->
<svg width="1154pt" height="284pt"
 viewBox="0.00 0.00 1154.00 284.00" xmlns="http://www.w3.org/2000/svg" xmlns:xlink="http://www.w3.org/1999/xlink">
<g id="graph0" class="graph" transform="scale(1 1) rotate(0) translate(4 280)">
<title>dependencies</title>
<polygon fill="#ffffff" stroke="transparent" points="-4,4 -4,-280 1150,-280 1150,4 -4,4"/>
<text text-anchor="start" x="552.0091" y="-42.4" font-family="sans-serif" font-weight="bold" font-size="14.00" fill="#000000">Legend</text>
<polygon fill="#ffffb3" stroke="transparent" points="339,-10 339,-30 359,-30 359,-10 339,-10"/>
<text text-anchor="start" x="362.629" y="-15.4" font-family="sans-serif" font-size="14.00" fill="#000000"> &#160;Declarations</text>
<polygon fill="#8dd3c7" stroke="transparent" points="452,-10 452,-30 472,-30 472,-10 452,-10"/>
<text text-anchor="start" x="475.7251" y="-15.4" font-family="sans-serif" font-size="14.00" fill="#000000"> &#160;Module</text>
<polygon fill="#80b1d3" stroke="transparent" points="538,-10 538,-30 558,-30 558,-10 538,-10"/>
<text text-anchor="start" x="561.7812" y="-15.4" font-family="sans-serif" font-size="14.00" fill="#000000"> &#160;Bootstrap</text>
<polygon fill="#fdb462" stroke="transparent" points="635,-10 635,-30 655,-30 655,-10 635,-10"/>
<text text-anchor="start" x="658.6732" y="-15.4" font-family="sans-serif" font-size="14.00" fill="#000000"> &#160;Providers</text>
<polygon fill="#fb8072" stroke="transparent" points="731,-10 731,-30 751,-30 751,-10 731,-10"/>
<text text-anchor="start" x="754.7258" y="-15.4" font-family="sans-serif" font-size="14.00" fill="#000000"> &#160;Exports</text>
<g id="clust1" class="cluster">
<title>cluster_AppModule</title>
<polygon fill="none" stroke="#000000" stroke-dasharray="1,5" points="8,-70 8,-268 1138,-268 1138,-70 8,-70"/>
</g>
<g id="clust2" class="cluster">
<title>cluster_AppModule_declarations</title>
<polygon fill="none" stroke="#000000" points="306,-78 306,-130 1130,-130 1130,-78 306,-78"/>
</g>
<g id="clust9" class="cluster">
<title>cluster_AppModule_imports</title>
<polygon fill="none" stroke="#000000" points="154,-78 154,-130 298,-130 298,-78 154,-78"/>
</g>
<g id="clust11" class="cluster">
<title>cluster_AppModule_bootstrap</title>
<polygon fill="none" stroke="#000000" points="481,-208 481,-260 605,-260 605,-208 481,-208"/>
</g>
<g id="clust12" class="cluster">
<title>cluster_AppModule_providers</title>
<polygon fill="none" stroke="#000000" points="16,-78 16,-130 146,-130 146,-78 16,-78"/>
</g>
<!-- AppComponent -->
<g id="node1" class="node">
<title>AppComponent</title>
<polygon fill="#ffffb3" stroke="#000000" points="1121.9399,-122 1016.0601,-122 1016.0601,-86 1121.9399,-86 1121.9399,-122"/>
<text text-anchor="middle" x="1069" y="-99.8" font-family="Times,serif" font-size="14.00" fill="#000000">AppComponent</text>
</g>
<!-- AppModule -->
<g id="node7" class="node">
<title>AppModule</title>
<polygon fill="#8dd3c7" stroke="#000000" points="584.6571,-187 581.6571,-191 560.6571,-191 557.6571,-187 501.3429,-187 501.3429,-151 584.6571,-151 584.6571,-187"/>
<text text-anchor="middle" x="543" y="-164.8" font-family="Times,serif" font-size="14.00" fill="#000000">AppModule</text>
</g>
<!-- AppComponent&#45;&gt;AppModule -->
<g id="edge1" class="edge">
<title>AppComponent&#45;&gt;AppModule</title>
<path fill="none" stroke="#000000" d="M1069,-122.2921C1069,-144.2057 1069,-178 1069,-178 1069,-178 594.714,-178 594.714,-178"/>
<polygon fill="#000000" stroke="#000000" points="594.714,-174.5001 584.714,-178 594.714,-181.5001 594.714,-174.5001"/>
</g>
<!-- ComponentTestingComponent -->
<g id="node2" class="node">
<title>ComponentTestingComponent</title>
<polygon fill="#ffffb3" stroke="#000000" points="998.1581,-122 809.8419,-122 809.8419,-86 998.1581,-86 998.1581,-122"/>
<text text-anchor="middle" x="904" y="-99.8" font-family="Times,serif" font-size="14.00" fill="#000000">ComponentTestingComponent</text>
</g>
<!-- ComponentTestingComponent&#45;&gt;AppModule -->
<g id="edge2" class="edge">
<title>ComponentTestingComponent&#45;&gt;AppModule</title>
<path fill="none" stroke="#000000" d="M904,-122.1061C904,-141.3391 904,-169 904,-169 904,-169 594.764,-169 594.764,-169"/>
<polygon fill="#000000" stroke="#000000" points="594.764,-165.5001 584.764,-169 594.7639,-172.5001 594.764,-165.5001"/>
</g>
<!-- PaskhaComponent -->
<g id="node3" class="node">
<title>PaskhaComponent</title>
<polygon fill="#ffffb3" stroke="#000000" points="791.4888,-122 670.5112,-122 670.5112,-86 791.4888,-86 791.4888,-122"/>
<text text-anchor="middle" x="731" y="-99.8" font-family="Times,serif" font-size="14.00" fill="#000000">PaskhaComponent</text>
</g>
<!-- PaskhaComponent&#45;&gt;AppModule -->
<g id="edge3" class="edge">
<title>PaskhaComponent&#45;&gt;AppModule</title>
<path fill="none" stroke="#000000" d="M731,-122.027C731,-138.3976 731,-160 731,-160 731,-160 594.7233,-160 594.7233,-160"/>
<polygon fill="#000000" stroke="#000000" points="594.7233,-156.5001 584.7233,-160 594.7233,-163.5001 594.7233,-156.5001"/>
</g>
<!-- RrrComponent -->
<g id="node4" class="node">
<title>RrrComponent</title>
<polygon fill="#ffffb3" stroke="#000000" points="652.9902,-122 553.0098,-122 553.0098,-86 652.9902,-86 652.9902,-122"/>
<text text-anchor="middle" x="603" y="-99.8" font-family="Times,serif" font-size="14.00" fill="#000000">RrrComponent</text>
</g>
<!-- RrrComponent&#45;&gt;AppModule -->
<g id="edge4" class="edge">
<title>RrrComponent&#45;&gt;AppModule</title>
<path fill="none" stroke="#000000" d="M568.9166,-122.1061C568.9166,-122.1061 568.9166,-140.991 568.9166,-140.991"/>
<polygon fill="#000000" stroke="#000000" points="565.4166,-140.9909 568.9166,-150.991 572.4166,-140.991 565.4166,-140.9909"/>
</g>
<!-- SedComponent -->
<g id="node5" class="node">
<title>SedComponent</title>
<polygon fill="#ffffb3" stroke="#000000" points="535.3301,-122 432.6699,-122 432.6699,-86 535.3301,-86 535.3301,-122"/>
<text text-anchor="middle" x="484" y="-99.8" font-family="Times,serif" font-size="14.00" fill="#000000">SedComponent</text>
</g>
<!-- SedComponent&#45;&gt;AppModule -->
<g id="edge5" class="edge">
<title>SedComponent&#45;&gt;AppModule</title>
<path fill="none" stroke="#000000" d="M518.1683,-122.1061C518.1683,-122.1061 518.1683,-140.991 518.1683,-140.991"/>
<polygon fill="#000000" stroke="#000000" points="514.6684,-140.9909 518.1683,-150.991 521.6684,-140.991 514.6684,-140.9909"/>
</g>
<!-- SprComponent -->
<g id="node6" class="node">
<title>SprComponent</title>
<polygon fill="#ffffb3" stroke="#000000" points="414.2758,-122 313.7242,-122 313.7242,-86 414.2758,-86 414.2758,-122"/>
<text text-anchor="middle" x="364" y="-99.8" font-family="Times,serif" font-size="14.00" fill="#000000">SprComponent</text>
</g>
<!-- SprComponent&#45;&gt;AppModule -->
<g id="edge6" class="edge">
<title>SprComponent&#45;&gt;AppModule</title>
<path fill="none" stroke="#000000" d="M364,-122.027C364,-138.3976 364,-160 364,-160 364,-160 491.0325,-160 491.0325,-160"/>
<polygon fill="#000000" stroke="#000000" points="491.0325,-163.5001 501.0325,-160 491.0324,-156.5001 491.0325,-163.5001"/>
</g>
<!-- AppComponent  -->
<g id="node9" class="node">
<title>AppComponent </title>
<polygon fill="#80b1d3" stroke="#000000" points="597.439,-252 488.561,-252 488.561,-216 597.439,-216 597.439,-252"/>
<text text-anchor="middle" x="543" y="-229.8" font-family="Times,serif" font-size="14.00" fill="#000000">AppComponent </text>
</g>
<!-- AppModule&#45;&gt;AppComponent  -->
<g id="edge8" class="edge">
<title>AppModule&#45;&gt;AppComponent </title>
<path fill="none" stroke="#000000" stroke-dasharray="1,5" d="M543,-187.1061C543,-187.1061 543,-205.991 543,-205.991"/>
<polygon fill="#000000" stroke="#000000" points="539.5001,-205.9909 543,-215.991 546.5001,-205.991 539.5001,-205.9909"/>
</g>
<!-- AppRoutingModule -->
<g id="node8" class="node">
<title>AppRoutingModule</title>
<polygon fill="#8dd3c7" stroke="#000000" points="290.2744,-122 287.2744,-126 266.2744,-126 263.2744,-122 161.7256,-122 161.7256,-86 290.2744,-86 290.2744,-122"/>
<text text-anchor="middle" x="226" y="-99.8" font-family="Times,serif" font-size="14.00" fill="#000000">AppRoutingModule</text>
</g>
<!-- AppRoutingModule&#45;&gt;AppModule -->
<g id="edge7" class="edge">
<title>AppRoutingModule&#45;&gt;AppModule</title>
<path fill="none" stroke="#000000" d="M226,-122.1061C226,-141.3391 226,-169 226,-169 226,-169 491.2318,-169 491.2318,-169"/>
<polygon fill="#000000" stroke="#000000" points="491.2318,-172.5001 501.2318,-169 491.2318,-165.5001 491.2318,-172.5001"/>
</g>
<!-- XxxService -->
<g id="node10" class="node">
<title>XxxService</title>
<ellipse fill="#fdb462" stroke="#000000" cx="81" cy="-104" rx="56.7406" ry="18"/>
<text text-anchor="middle" x="81" y="-99.8" font-family="Times,serif" font-size="14.00" fill="#000000">XxxService</text>
</g>
<!-- XxxService&#45;&gt;AppModule -->
<g id="edge9" class="edge">
<title>XxxService&#45;&gt;AppModule</title>
<path fill="none" stroke="#000000" d="M81,-122.2921C81,-144.2057 81,-178 81,-178 81,-178 491.1857,-178 491.1857,-178"/>
<polygon fill="#000000" stroke="#000000" points="491.1858,-181.5001 501.1857,-178 491.1857,-174.5001 491.1858,-181.5001"/>
</g>
</g>
</svg>
